[ConversionWorker] Logging FFmpeg output to: ffmpeg_logs\ffmpeg_conversion_高冷08_wav_20250525_173819.log\n[ConversionWorker] Getting duration with command: ffprobe -v error -show_entries format=duration -of default=noprint_wrappers=1:nokey=1 Z:\Story\高冷\高冷08.wav\n[ConversionWorker] Duration for 高冷08.wav: 3002019 ms\n[ConversionWorker] Starting FFmpeg for 高冷08.wav: ffmpeg -i Z:\Story\高冷\高冷08.wav -b:a 128k -vn -y -loglevel error -stats -progress pipe:1 Z:\Story\高冷\高冷08.mp3\n[ConversionWorker] FFmpeg process started. PID: 28552\n[STDOUT RAW] bitrate= 124.4kbits/s\n[STDOUT RAW] total_size=78764\n[STDOUT RAW] out_time_us=5065958\n[STDOUT RAW] out_time_ms=5065958\n[STDOUT RAW] out_time=00:00:05.065958\n[STDOUT RAW] dup_frames=0\n[STDOUT RAW] drop_frames=0\n[STDOUT RAW] speed=9.89x\n[STDOUT RAW] progress=continue\n[STDERR RAW] size=      77KiB time=00:00:05.06 bitrate= 124.4kbits/s speed=9.89x\n[STDOUT RAW] bitrate= 125.9kbits/s\n[STDOUT RAW] total_size=156716\n[STDOUT RAW] out_time_us=9961958\n[STDOUT RAW] out_time_ms=9961958\n[STDOUT RAW] out_time=00:00:09.961958\n[STDOUT RAW] dup_frames=0\n[STDOUT RAW] drop_frames=0\n[STDOUT RAW] speed=9.59x\n[STDOUT RAW] progress=continue\n[STDERR RAW] size=     153KiB time=00:00:09.96 bitrate= 125.9kbits/s speed=9.59x\n[STDOUT RAW] bitrate= 126.6kbits/s\n[STDOUT RAW] total_size=236588\n[STDOUT RAW] out_time_us=14953958\n[STDOUT RAW] out_time_ms=14953958\n[STDOUT RAW] out_time=00:00:14.953958\n[STDOUT RAW] dup_frames=0\n[STDOUT RAW] drop_frames=0\n[STDOUT RAW] speed=9.66x\n[STDOUT RAW] progress=continue\n[STDERR RAW] size=     231KiB time=00:00:14.95 bitrate= 126.6kbits/s speed=9.66x\n[STDOUT RAW] bitrate= 107.9kbits/s\n[STDOUT RAW] total_size=1310720\n[STDOUT RAW] out_time_us=97201958\n[STDOUT RAW] out_time_ms=97201958\n[STDOUT RAW] out_time=00:01:37.201958\n[STDOUT RAW] dup_frames=0\n[STDOUT RAW] drop_frames=0\n[STDOUT RAW] speed=47.1x\n[STDOUT RAW] progress=continue\n[STDOUT RAW] bitrate= 121.1kbits/s\n[STDERR RAW] size=    1280KiB time=00:01:37.20 bitrate= 107.9kbits/s speed=47.1x\n[STDOUT RAW] total_size=3145728\n[STDOUT RAW] out_time_us=207889958\n[STDOUT RAW] out_time_ms=207889958\n[STDOUT RAW] out_time=00:03:27.889958\n[STDOUT RAW] dup_frames=0\n[STDOUT RAW] drop_frames=0\n[STDOUT RAW] speed=80.6x\n[STDOUT RAW] progress=continue\n[STDERR RAW] size=    3072KiB time=00:03:27.88 bitrate= 121.1kbits/s speed=80.6x\n[STDOUT RAW] bitrate= 124.8kbits/s\n[STDOUT RAW] total_size=4718592\n[STDOUT RAW] out_time_us=302569958\n[STDOUT RAW] out_time_ms=302569958\n[STDOUT RAW] out_time=00:05:02.569958\n[STDOUT RAW] dup_frames=0\n[STDOUT RAW] drop_frames=0\n[STDOUT RAW] speed=97.9x\n[STDOUT RAW] progress=continue\n[STDERR RAW] size=    4608KiB time=00:05:02.56 bitrate= 124.8kbits/s speed=97.9x\n[STDOUT RAW] bitrate= 123.1kbits/s\n[STDOUT RAW] total_size=6029312\n[STDOUT RAW] out_time_us=391849958\n[STDOUT RAW] out_time_ms=391849958\n[STDOUT RAW] out_time=00:06:31.849958\n[STDOUT RAW] dup_frames=0\n[STDOUT RAW] drop_frames=0\n[STDOUT RAW] speed= 109x\n[STDOUT RAW] progress=continue\n[STDERR RAW] size=    5888KiB time=00:06:31.84 bitrate= 123.1kbits/s speed= 109x\n[STDOUT RAW] bitrate= 124.2kbits/s\n[STDOUT RAW] total_size=7602176\n[STDOUT RAW] out_time_us=489769958\n[STDOUT RAW] out_time_ms=489769958\n[STDOUT RAW] out_time=00:08:09.769958\n[STDOUT RAW] dup_frames=0\n[STDOUT RAW] drop_frames=0\n[STDOUT RAW] speed= 119x\n[STDOUT RAW] progress=continue\n[STDERR RAW] size=    7424KiB time=00:08:09.76 bitrate= 124.2kbits/s speed= 119x\n[STDOUT RAW] bitrate= 127.8kbits/s\n[STDOUT RAW] total_size=9437184\n[STDOUT RAW] out_time_us=590785958\n[STDOUT RAW] out_time_ms=590785958\n[STDOUT RAW] out_time=00:09:50.785958\n[STDOUT RAW] dup_frames=0\n[STDOUT RAW] drop_frames=0\n[STDOUT RAW] speed= 127x\n[STDOUT RAW] progress=continue\n[STDERR RAW] size=    9216KiB time=00:09:50.78 bitrate= 127.8kbits/s speed= 127x\n[STDOUT RAW] bitrate= 127.0kbits/s\n[STDOUT RAW] total_size=11010048\n[STDOUT RAW] out_time_us=693577958\n[STDOUT RAW] out_time_ms=693577958\n[STDOUT RAW] out_time=00:11:33.577958\n[STDOUT RAW] dup_frames=0\n[STDOUT RAW] drop_frames=0\n[STDOUT RAW] speed= 134x\n[STDOUT RAW] progress=continue\n[STDERR RAW] size=   10752KiB time=00:11:33.57 bitrate= 127.0kbits/s speed= 134x\n[STDOUT RAW] bitrate= 125.7kbits/s\n[STDOUT RAW] total_size=12582912\n[STDOUT RAW] out_time_us=800641958\n[STDOUT RAW] out_time_ms=800641958\n[STDOUT RAW] out_time=00:13:20.641958\n[STDOUT RAW] dup_frames=0\n[STDOUT RAW] drop_frames=0\n[STDOUT RAW] speed= 141x\n[STDOUT RAW] progress=continue\n[STDERR RAW] size=   12288KiB time=00:13:20.64 bitrate= 125.7kbits/s speed= 141x\n[STDOUT RAW] bitrate= 125.7kbits/s\n[STDOUT RAW] total_size=14155776\n[STDOUT RAW] out_time_us=900577958\n[STDOUT RAW] out_time_ms=900577958\n[STDOUT RAW] out_time=00:15:00.577958\n[STDOUT RAW] dup_frames=0\n[STDOUT RAW] drop_frames=0\n[STDOUT RAW] speed= 146x\n[STDOUT RAW] progress=continue\n[STDERR RAW] size=   13824KiB time=00:15:00.57 bitrate= 125.7kbits/s speed= 146x\n[STDOUT RAW] bitrate= 127.3kbits/s\n[STDOUT RAW] total_size=15990784\n[STDOUT RAW] out_time_us=1005265958\n[STDOUT RAW] out_time_ms=1005265958\n[STDOUT RAW] out_time=00:16:45.265958\n[STDOUT RAW] dup_frames=0\n[STDOUT RAW] drop_frames=0\n[STDOUT RAW] speed= 150x\n[STDOUT RAW] progress=continue\n[STDERR RAW] size=   15616KiB time=00:16:45.26 bitrate= 127.3kbits/s speed= 150x\n[STDOUT RAW] bitrate= 126.1kbits/s\n[STDOUT RAW] total_size=17563648\n[STDOUT RAW] out_time_us=1114249958\n[STDOUT RAW] out_time_ms=1114249958\n[STDOUT RAW] out_time=00:18:34.249958\n[STDOUT RAW] dup_frames=0\n[STDOUT RAW] drop_frames=0\n[STDOUT RAW] speed= 154x\n[STDOUT RAW] progress=continue\n[STDERR RAW] size=   17152KiB time=00:18:34.24 bitrate= 126.1kbits/s speed= 154x\n[STDOUT RAW] bitrate= 126.5kbits/s\n[STDOUT RAW] total_size=19398656\n[STDOUT RAW] out_time_us=1226713958\n[STDOUT RAW] out_time_ms=1226713958\n[STDOUT RAW] out_time=00:20:26.713958\n[STDOUT RAW] dup_frames=0\n[STDOUT RAW] drop_frames=0\n[STDOUT RAW] speed= 158x\n[STDOUT RAW] progress=continue\n[STDERR RAW] size=   18944KiB time=00:20:26.71 bitrate= 126.5kbits/s speed= 158x\n[STDOUT RAW] bitrate= 127.7kbits/s\n[STDOUT RAW] total_size=21233664\n[STDOUT RAW] out_time_us=1330585958\n[STDOUT RAW] out_time_ms=1330585958\n[STDOUT RAW] out_time=00:22:10.585958\n[STDOUT RAW] dup_frames=0\n[STDOUT RAW] drop_frames=0\n[STDOUT RAW] speed= 161x\n[STDOUT RAW] progress=continue\n[STDERR RAW] size=   20736KiB time=00:22:10.58 bitrate= 127.7kbits/s speed= 161x\n[STDOUT RAW] bitrate= 126.8kbits/s\n[STDOUT RAW] total_size=22806528\n[STDOUT RAW] out_time_us=1438753958\n[STDOUT RAW] out_time_ms=1438753958\n[STDOUT RAW] out_time=00:23:58.753958\n[STDOUT RAW] dup_frames=0\n[STDOUT RAW] drop_frames=0\n[STDOUT RAW] speed= 164x\n[STDOUT RAW] progress=continue\n[STDERR RAW] size=   22272KiB time=00:23:58.75 bitrate= 126.8kbits/s speed= 164x\n[STDOUT RAW] bitrate= 127.7kbits/s\n[STDOUT RAW] total_size=24641536\n[STDOUT RAW] out_time_us=1543705958\n[STDOUT RAW] out_time_ms=1543705958\n[STDOUT RAW] out_time=00:25:43.705958\n[STDOUT RAW] dup_frames=0\n[STDOUT RAW] drop_frames=0\n[STDOUT RAW] speed= 166x\n[STDOUT RAW] progress=continue\n[STDERR RAW] size=   24064KiB time=00:25:43.70 bitrate= 127.7kbits/s speed= 166x\n[STDOUT RAW] bitrate= 127.1kbits/s\n[STDOUT RAW] total_size=26214400\n[STDOUT RAW] out_time_us=1649977958\n[STDOUT RAW] out_time_ms=1649977958\n[STDOUT RAW] out_time=00:27:29.977958\n[STDOUT RAW] dup_frames=0\n[STDOUT RAW] drop_frames=0\n[STDOUT RAW] speed= 168x\n[STDOUT RAW] progress=continue\n[STDERR RAW] size=   25600KiB time=00:27:29.97 bitrate= 127.1kbits/s speed= 168x\n[STDOUT RAW] bitrate= 127.8kbits/s\n[STDOUT RAW] total_size=28049408\n[STDOUT RAW] out_time_us=1755169958\n[STDOUT RAW] out_time_ms=1755169958\n[STDOUT RAW] out_time=00:29:15.169958\n[STDOUT RAW] dup_frames=0\n[STDOUT RAW] drop_frames=0\n[STDOUT RAW] speed= 170x\n[STDOUT RAW] progress=continue\n[STDERR RAW] size=   27392KiB time=00:29:15.16 bitrate= 127.8kbits/s speed= 170x\n[STDOUT RAW] bitrate= 127.7kbits/s\n[STDOUT RAW] total_size=29622272\n[STDOUT RAW] out_time_us=1855273958\n[STDOUT RAW] out_time_ms=1855273958\n[STDOUT RAW] out_time=00:30:55.273958\n[STDOUT RAW] dup_frames=0\n[STDOUT RAW] drop_frames=0\n[STDOUT RAW] speed= 171x\n[STDOUT RAW] progress=continue\n[STDERR RAW] size=   28928KiB time=00:30:55.27 bitrate= 127.7kbits/s speed= 171x\n[STDOUT RAW] bitrate= 126.9kbits/s\n[STDOUT RAW] total_size=31195136\n[STDOUT RAW] out_time_us=1966201958\n[STDOUT RAW] out_time_ms=1966201958\n[STDOUT RAW] out_time=00:32:46.201958\n[STDOUT RAW] dup_frames=0\n[STDOUT RAW] drop_frames=0\n[STDOUT RAW] speed= 173x\n[STDOUT RAW] progress=continue\n[STDERR RAW] size=   30464KiB time=00:32:46.20 bitrate= 126.9kbits/s speed= 173x\n[STDOUT RAW] bitrate= 127.5kbits/s\n[STDOUT RAW] total_size=33030144\n[STDOUT RAW] out_time_us=2072401958\n[STDOUT RAW] out_time_ms=2072401958\n[STDOUT RAW] out_time=00:34:32.401958\n[STDOUT RAW] dup_frames=0\n[STDOUT RAW] drop_frames=0\n[STDOUT RAW] speed= 175x\n[STDOUT RAW] progress=continue\n[STDERR RAW] size=   32256KiB time=00:34:32.40 bitrate= 127.5kbits/s speed= 175x\n[STDOUT RAW] bitrate= 127.9kbits/s\n[STDOUT RAW] total_size=34865152\n[STDOUT RAW] out_time_us=2180617958\n[STDOUT RAW] out_time_ms=2180617958\n[STDOUT RAW] out_time=00:36:20.617958\n[STDOUT RAW] dup_frames=0\n[STDOUT RAW] drop_frames=0\n[STDOUT RAW] speed= 176x\n[STDOUT RAW] progress=continue\n[STDOUT RAW] bitrate= 127.4kbits/s\n[STDOUT RAW] total_size=36438016\n[STDOUT RAW] out_time_us=2288761958\n[STDOUT RAW] out_time_ms=2288761958\n[STDOUT RAW] out_time=00:38:08.761958\n[STDOUT RAW] dup_frames=0\n[STDOUT RAW] drop_frames=0\n[STDOUT RAW] speed= 177x\n[STDOUT RAW] progress=continue\n[STDERR RAW] size=   34048KiB time=00:36:20.61 bitrate= 127.9kbits/s speed= 176x\n[STDERR RAW] size=   35584KiB time=00:38:08.76 bitrate= 127.4kbits/s speed= 177x\n[STDOUT RAW] bitrate= 127.1kbits/s\n[STDOUT RAW] total_size=38010880\n[STDOUT RAW] out_time_us=2392201958\n[STDOUT RAW] out_time_ms=2392201958\n[STDOUT RAW] out_time=00:39:52.201958\n[STDOUT RAW] dup_frames=0\n[STDOUT RAW] drop_frames=0\n[STDOUT RAW] speed= 178x\n[STDOUT RAW] progress=continue\n[STDERR RAW] size=   37120KiB time=00:39:52.20 bitrate= 127.1kbits/s speed= 178x\n[STDOUT RAW] bitrate= 127.9kbits/s\n[STDOUT RAW] total_size=39845888\n[STDOUT RAW] out_time_us=2492113958\n[STDOUT RAW] out_time_ms=2492113958\n[STDOUT RAW] out_time=00:41:32.113958\n[STDOUT RAW] dup_frames=0\n[STDOUT RAW] drop_frames=0\n[STDOUT RAW] speed= 179x\n[STDOUT RAW] progress=continue\n[STDERR RAW] size=   38912KiB time=00:41:32.11 bitrate= 127.9kbits/s speed= 179x\n[STDOUT RAW] bitrate= 127.7kbits/s\n[STDOUT RAW] total_size=41418752\n[STDOUT RAW] out_time_us=2593825958\n[STDOUT RAW] out_time_ms=2593825958\n[STDOUT RAW] out_time=00:43:13.825958\n[STDOUT RAW] dup_frames=0\n[STDOUT RAW] drop_frames=0\n[STDOUT RAW] speed= 179x\n[STDOUT RAW] progress=continue\n[STDERR RAW] size=   40448KiB time=00:43:13.82 bitrate= 127.7kbits/s speed= 179x\n[STDOUT RAW] bitrate= 127.7kbits/s\n[STDOUT RAW] total_size=42991616\n[STDOUT RAW] out_time_us=2692441958\n[STDOUT RAW] out_time_ms=2692441958\n[STDOUT RAW] out_time=00:44:52.441958\n[STDOUT RAW] dup_frames=0\n[STDOUT RAW] drop_frames=0\n[STDOUT RAW] speed= 180x\n[STDOUT RAW] progress=continue\n[STDERR RAW] size=   41984KiB time=00:44:52.44 bitrate= 127.7kbits/s speed= 180x\n[STDOUT RAW] bitrate= 127.6kbits/s\n[STDOUT RAW] total_size=44564480\n[STDOUT RAW] out_time_us=2794081958\n[STDOUT RAW] out_time_ms=2794081958\n[STDOUT RAW] out_time=00:46:34.081958\n[STDOUT RAW] dup_frames=0\n[STDOUT RAW] drop_frames=0\n[STDOUT RAW] speed= 180x\n[STDOUT RAW] progress=continue\n[STDERR RAW] size=   43520KiB time=00:46:34.08 bitrate= 127.6kbits/s speed= 180x\n[STDOUT RAW] bitrate= 127.3kbits/s\n[STDOUT RAW] total_size=45875200\n[STDOUT RAW] out_time_us=2882113958\n[STDOUT RAW] out_time_ms=2882113958\n[STDOUT RAW] out_time=00:48:02.113958\n[STDOUT RAW] dup_frames=0\n[STDOUT RAW] drop_frames=0\n[STDOUT RAW] speed= 180x\n[STDOUT RAW] progress=continue\n[STDERR RAW] size=   44800KiB time=00:48:02.11 bitrate= 127.3kbits/s speed= 180x\n[STDOUT RAW] bitrate= 127.5kbits/s\n[STDOUT RAW] total_size=47448064\n[STDOUT RAW] out_time_us=2976337958\n[STDOUT RAW] out_time_ms=2976337958\n[STDOUT RAW] out_time=00:49:36.337958\n[STDOUT RAW] dup_frames=0\n[STDOUT RAW] drop_frames=0\n[STDOUT RAW] speed= 180x\n[STDOUT RAW] progress=continue\n[STDERR RAW] size=   46336KiB time=00:49:36.33 bitrate= 127.5kbits/s speed= 180x\n[STDERR RAW] size=   46908KiB time=00:50:02.01 bitrate= 128.0kbits/s speed= 180x\n[STDOUT RAW] bitrate= 128.0kbits/s\n[STDOUT RAW] total_size=48033836\n[STDOUT RAW] out_time_us=3002019333\n[STDOUT RAW] out_time_ms=3002019333\n[STDOUT RAW] out_time=00:50:02.019333\n[STDOUT RAW] dup_frames=0\n[STDOUT RAW] drop_frames=0\n[STDOUT RAW] speed= 180x\n[STDOUT RAW] progress=end\n[ConversionWorker] STDERR pipe closed signal received.\n[ConversionWorker] Detected 'progress=end' for 高冷08.wav\n[ConversionWorker] STDOUT pipe closed signal received.\n[ConversionWorker] Process finished and both stream pipes closed. Exiting loop.\n[ConversionWorker] Waiting for reader threads to join...\n[ConversionWorker] FFmpeg process ended. Return code: 0\n[ConversionWorker] Closing FFmpeg log file.\n